<?xml version="1.0" encoding="UTF-8" standalone="no" ?>
<!DOCTYPE svg PUBLIC "-//W3C//DTD SVG 1.1//EN" "http://www.w3.org/Graphics/SVG/1.1/DTD/svg11.dtd">
<svg xmlns="http://www.w3.org/2000/svg" xmlns:xlink="http://www.w3.org/1999/xlink" version="1.1" width="150" height="90" viewBox="0 0 166.67 100" xml:space="preserve">
<desc>Created with Fabric.js 3.6.3</desc>
<defs>
</defs>
<g transform="matrix(0.24 0 0 0.24 72.77 44.39)"  >
<g style=""   >
		<g transform="matrix(4.39 0 0 4.39 12.56 -47.3)" id="a"  >
<path style="stroke: none; stroke-width: 1; stroke-dasharray: none; stroke-linecap: butt; stroke-dashoffset: 0; stroke-linejoin: miter; stroke-miterlimit: 4; fill: rgb(255,255,255); fill-rule: nonzero; opacity: 1;"  transform=" translate(-69.73, -30.04)" d="M 89.968 37.516 v -0.125 c 3.313 -0.598 5.936 -2.291 7.4 -4.787 l -0.004 -0.005 c -0.934 -1.655 -1.438 -3.526 -1.438 -5.478 c 0 -1.904 0.48 -3.697 1.322 -5.269 l -0.01 -0.018 c -2.645 -4.473 -8.436 -5.384 -12.647 -5.384 h -15.254 v 10.898 c -1.555 -3.465 -5.287 -5.857 -9.779 -6.282 v -0.126 c 5.189 -0.936 8.689 -4.561 8.689 -9.752 C 68.249 1.624 59.81 0 54.185 0 h -15.253 V 43.633 h 15.253 c 4.6 0 12.641 -1.141 15.154 -7.941 v 24.392 h 15.254 c 5.5 0 15.932 -1.625 15.932 -12.628 c 0 -5.375 -4.617 -9.376 -10.557 -9.939 Z M 47.683 6.876 h 3.377 c 4 0 8.439 0.377 8.439 5.439 c 0 4.501 -4.564 5.313 -8.252 5.313 h -3.564 V 6.876 Z m 4.125 29.882 h -4.125 v -12.628 h 4.125 c 4.377 0 9.002 0.875 9.002 6.563 c 0 5.064 -4.937 6.064 -9.002 6.064 Z m 26.283 -13.432 h 3.377 c 4 0 8.439 0.376 8.439 5.438 c 0 4.501 -4.564 5.313 -8.254 5.313 h -3.563 v -10.752 Z m 4.125 29.882 h -4.125 v -12.628 h 4.125 c 4.377 0 9.002 0.875 9.002 6.563 c 0 5.065 -4.937 6.065 -9.002 6.065 Z" stroke-linecap="round" />
</g>
		<g transform="matrix(4.39 0 0 4.39 133.55 -59.7)" id="a"  >
<path style="stroke: none; stroke-width: 1; stroke-dasharray: none; stroke-linecap: butt; stroke-dashoffset: 0; stroke-linejoin: miter; stroke-miterlimit: 4; fill: rgb(227,6,19); fill-rule: nonzero; opacity: 1;"  transform=" translate(-97.29, -27.22)" d="M 97.364 32.599 c -0.934 -1.655 -1.438 -3.526 -1.438 -5.478 c 0 -1.904 0.48 -3.697 1.322 -5.269 l -0.01 -0.018 c 0.885 1.501 1.418 3.402 1.418 5.805 c 0 1.877 -0.459 3.55 -1.289 4.965 l -0.004 -0.005 Z" stroke-linecap="round" />
</g>
		<g transform="matrix(4.39 0 0 4.39 217.05 -59.87)" id="a"  >
<path style="stroke: none; stroke-width: 1; stroke-dasharray: none; stroke-linecap: butt; stroke-dashoffset: 0; stroke-linejoin: miter; stroke-miterlimit: 4; fill: rgb(227,6,19); fill-rule: nonzero; opacity: 1;"  transform=" translate(-116.31, -27.18)" d="M 117.534 23.8 c -0.891 0.126 -1.803 0.175 -2.668 0.175 h -0.189 c 0.396 0.986 0.607 2.05 0.607 3.146 c 0 1.191 -0.25 2.325 -0.699 3.355 h 0.844 c 0.687 0 1.381 0.026 2.062 0.085 c 0.353 -1.098 0.543 -2.254 0.543 -3.44 c 0 -1.144 -0.172 -2.26 -0.5 -3.321 Z" stroke-linecap="round" />
</g>
		<g transform="matrix(4.39 0 0 4.39 225.1 -55.56)" id="a"  >
<path style="stroke: none; stroke-width: 1; stroke-dasharray: none; stroke-linecap: butt; stroke-dashoffset: 0; stroke-linejoin: miter; stroke-miterlimit: 4; fill: rgb(255,255,255); fill-rule: nonzero; opacity: 1;"  transform=" translate(-118.14, -28.16)" d="M 123.181 27.412 v -0.126 c 5.187 -0.936 8.687 -4.561 8.687 -9.751 c 0 -9.564 -8.439 -11.189 -14.064 -11.189 h -15.252 v 10.439 c 1.322 -0.551 2.77 -0.858 4.289 -0.858 c 1.563 0 3.072 0.325 4.463 0.931 v -3.636 h 3.375 c 4 0 8.439 0.377 8.439 5.438 c 0 3.446 -2.676 4.728 -5.584 5.142 c 0.328 1.061 0.5 2.177 0.5 3.319 c 0 1.185 -0.189 2.339 -0.541 3.436 c 3.652 0.313 6.937 1.688 6.937 6.482 c 0 5.064 -4.939 6.064 -9.002 6.064 h -4.125 v -5.72 c -1.391 0.604 -2.9 0.93 -4.463 0.93 c -1.496 0 -2.947 -0.292 -4.289 -0.849 v 12.514 h 15.252 c 5.5 0 15.934 -1.624 15.934 -12.627 c 0 -5.376 -4.619 -9.377 -10.557 -9.94 Z" stroke-linecap="round" />
</g>
		<g transform="matrix(4.39 0 0 4.39 175.86 -100.42)" id="a"  >
<path style="stroke: none; stroke-width: 1; stroke-dasharray: none; stroke-linecap: butt; stroke-dashoffset: 0; stroke-linejoin: miter; stroke-miterlimit: 4; fill: rgb(227,6,19); fill-rule: nonzero; opacity: 1;"  transform=" translate(-106.93, -17.94)" d="M 102.552 19.856 c 1.287 -0.763 2.754 -1.179 4.289 -1.179 c 1.606 0 3.135 0.451 4.463 1.281 v -3.102 c -1.391 -0.605 -2.9 -0.93 -4.463 -0.93 c -1.519 0 -2.967 0.307 -4.289 0.857 v 3.071 Z" stroke-linecap="round" />
</g>
		<g transform="matrix(4.39 0 0 4.39 175.86 -19.85)" id="a"  >
<path style="stroke: none; stroke-width: 1; stroke-dasharray: none; stroke-linecap: butt; stroke-dashoffset: 0; stroke-linejoin: miter; stroke-miterlimit: 4; fill: rgb(227,6,19); fill-rule: nonzero; opacity: 1;"  transform=" translate(-106.93, -36.3)" d="M 111.304 37.384 v -3.108 c -1.297 0.811 -2.822 1.288 -4.463 1.288 c -1.535 0 -3.002 -0.416 -4.289 -1.179 v 3.08 c 1.342 0.557 2.793 0.849 4.289 0.849 c 1.563 0 3.072 -0.325 4.463 -0.93 Z" stroke-linecap="round" />
</g>
		<g transform="matrix(4.39 0 0 4.39 184.6 -60.13)" id="a"  >
<path style="stroke: none; stroke-width: 1; stroke-dasharray: none; stroke-linecap: butt; stroke-dashoffset: 0; stroke-linejoin: miter; stroke-miterlimit: 4; fill: rgb(255,255,255); fill-rule: nonzero; opacity: 1;"  transform=" translate(-108.92, -27.12)" d="M 106.841 18.678 c -1.535 0 -3.002 0.416 -4.289 1.179 v 14.528 c 1.287 0.763 2.754 1.179 4.289 1.179 c 1.641 0 3.166 -0.477 4.463 -1.288 v -3.8 h 3.281 c 0.449 -1.029 0.699 -2.163 0.699 -3.355 c 0 -1.097 -0.211 -2.16 -0.607 -3.146 h -3.373 v -4.016 c -1.328 -0.83 -2.857 -1.281 -4.463 -1.281 Z" stroke-linecap="round" />
</g>
		<g transform="matrix(4.39 0 0 4.39 -282.07 163.12)" id="a"  >
<path style="stroke: none; stroke-width: 1; stroke-dasharray: none; stroke-linecap: butt; stroke-dashoffset: 0; stroke-linejoin: miter; stroke-miterlimit: 4; fill: rgb(227,6,19); fill-rule: nonzero; opacity: 1;"  transform=" translate(-2.62, -77.98)" d="M 0 74.434 H 2.76 c 0.267 0 0.53 0.032 0.79 0.095 c 0.26 0.063 0.492 0.167 0.695 0.311 c 0.203 0.144 0.368 0.328 0.495 0.555 c 0.127 0.227 0.19 0.5 0.19 0.82 c 0 0.399 -0.114 0.729 -0.34 0.99 c -0.227 0.26 -0.523 0.446 -0.89 0.56 v 0.02 c 0.22 0.027 0.425 0.089 0.615 0.186 s 0.352 0.22 0.485 0.37 c 0.133 0.149 0.238 0.323 0.315 0.52 c 0.077 0.197 0.115 0.409 0.115 0.636 c 0 0.387 -0.077 0.708 -0.23 0.965 s -0.355 0.463 -0.605 0.62 c -0.25 0.156 -0.537 0.268 -0.86 0.335 c -0.324 0.066 -0.652 0.1 -0.985 0.1 H 0 v -7.08 Z m 1.26 2.88 h 1.15 c 0.42 0 0.735 -0.081 0.945 -0.245 c 0.21 -0.163 0.315 -0.378 0.315 -0.645 c 0 -0.307 -0.108 -0.535 -0.325 -0.686 c -0.216 -0.149 -0.565 -0.225 -1.045 -0.225 H 1.26 v 1.8 Z m 0 3.12 h 1.16 c 0.16 0 0.332 -0.01 0.515 -0.03 c 0.183 -0.02 0.352 -0.066 0.505 -0.14 s 0.28 -0.179 0.38 -0.315 c 0.1 -0.136 0.15 -0.321 0.15 -0.555 c 0 -0.373 -0.122 -0.633 -0.365 -0.78 c -0.244 -0.146 -0.622 -0.22 -1.135 -0.22 H 1.26 v 2.04 Z" stroke-linecap="round" />
</g>
		<g transform="matrix(4.39 0 0 4.39 -249.39 168.12)" id="a"  >
<path style="stroke: none; stroke-width: 1; stroke-dasharray: none; stroke-linecap: butt; stroke-dashoffset: 0; stroke-linejoin: miter; stroke-miterlimit: 4; fill: rgb(227,6,19); fill-rule: nonzero; opacity: 1;"  transform=" translate(-10.06, -79.11)" d="M 8.83 79.533 c 0.04 0.36 0.18 0.641 0.42 0.841 c 0.24 0.199 0.53 0.3 0.87 0.3 c 0.3 0 0.551 -0.062 0.755 -0.186 c 0.203 -0.123 0.381 -0.278 0.535 -0.465 l 0.86 0.65 c -0.28 0.347 -0.594 0.594 -0.94 0.74 c -0.347 0.146 -0.71 0.22 -1.09 0.22 c -0.36 0 -0.7 -0.061 -1.02 -0.18 c -0.32 -0.12 -0.597 -0.29 -0.83 -0.511 c -0.233 -0.22 -0.418 -0.484 -0.555 -0.795 c -0.137 -0.31 -0.205 -0.654 -0.205 -1.035 s 0.068 -0.725 0.205 -1.034 c 0.137 -0.311 0.322 -0.575 0.555 -0.796 c 0.233 -0.22 0.51 -0.39 0.83 -0.51 c 0.32 -0.12 0.66 -0.18 1.02 -0.18 c 0.333 0 0.639 0.059 0.915 0.175 c 0.277 0.117 0.514 0.285 0.71 0.505 c 0.197 0.221 0.35 0.492 0.46 0.815 c 0.11 0.323 0.165 0.694 0.165 1.115 v 0.329 h -3.66 Z m 2.46 -0.899 c -0.007 -0.354 -0.117 -0.632 -0.33 -0.835 s -0.51 -0.305 -0.89 -0.305 c -0.36 0 -0.645 0.103 -0.855 0.31 s -0.338 0.483 -0.385 0.83 h 2.46 Z" stroke-linecap="round" />
</g>
		<g transform="matrix(4.39 0 0 4.39 -220.48 167.86)" id="a"  >
<path style="stroke: none; stroke-width: 1; stroke-dasharray: none; stroke-linecap: butt; stroke-dashoffset: 0; stroke-linejoin: miter; stroke-miterlimit: 4; fill: rgb(227,6,19); fill-rule: nonzero; opacity: 1;"  transform=" translate(-16.64, -79.06)" d="M 15.11 76.714 h 1.2 v 0.76 h 0.02 c 0.133 -0.28 0.323 -0.496 0.57 -0.65 c 0.247 -0.153 0.53 -0.229 0.85 -0.229 c 0.073 0 0.145 0.007 0.215 0.02 c 0.07 0.014 0.142 0.03 0.215 0.051 v 1.159 c -0.1 -0.026 -0.198 -0.048 -0.295 -0.064 s -0.192 -0.025 -0.285 -0.025 c -0.28 0 -0.505 0.052 -0.675 0.155 s -0.3 0.222 -0.39 0.355 c -0.09 0.133 -0.15 0.267 -0.18 0.399 c -0.03 0.134 -0.045 0.233 -0.045 0.3 v 2.57 h -1.2 v -4.8 Z" stroke-linecap="round" />
</g>
		<g transform="matrix(4.39 0 0 4.39 -193.94 168.39)" id="a"  >
<path style="stroke: none; stroke-width: 1; stroke-dasharray: none; stroke-linecap: butt; stroke-dashoffset: 0; stroke-linejoin: miter; stroke-miterlimit: 4; fill: rgb(227,6,19); fill-rule: nonzero; opacity: 1;"  transform=" translate(-22.69, -79.17)" d="M 24.88 81.514 h -1.14 v -0.77 h -0.02 c -0.113 0.239 -0.287 0.448 -0.52 0.625 c -0.233 0.176 -0.55 0.265 -0.95 0.265 c -0.32 0 -0.592 -0.052 -0.815 -0.155 c -0.224 -0.104 -0.405 -0.243 -0.545 -0.42 c -0.14 -0.177 -0.24 -0.378 -0.3 -0.604 s -0.09 -0.464 -0.09 -0.71 v -3.03 h 1.2 v 2.43 c 0 0.134 0.007 0.282 0.02 0.445 s 0.048 0.316 0.105 0.46 s 0.144 0.264 0.26 0.359 c 0.116 0.098 0.281 0.146 0.495 0.146 c 0.2 0 0.369 -0.033 0.505 -0.1 c 0.136 -0.067 0.25 -0.157 0.34 -0.271 s 0.155 -0.243 0.195 -0.39 s 0.06 -0.3 0.06 -0.46 v -2.62 h 1.2 v 4.8 Z" stroke-linecap="round" />
</g>
		<g transform="matrix(4.39 0 0 4.39 -166.47 161.8)" id="a"  >
<path style="stroke: none; stroke-width: 1; stroke-dasharray: none; stroke-linecap: butt; stroke-dashoffset: 0; stroke-linejoin: miter; stroke-miterlimit: 4; fill: rgb(227,6,19); fill-rule: nonzero; opacity: 1;"  transform=" translate(-28.95, -77.67)" d="M 28.169 77.733 h -0.99 v -1.02 h 0.99 v -0.681 c 0 -0.333 0.023 -0.635 0.07 -0.904 c 0.046 -0.271 0.135 -0.502 0.265 -0.695 c 0.13 -0.193 0.312 -0.342 0.545 -0.445 c 0.233 -0.103 0.536 -0.154 0.91 -0.154 c 0.273 0 0.527 0.023 0.76 0.069 l -0.08 1.021 c -0.087 -0.021 -0.17 -0.037 -0.25 -0.05 c -0.08 -0.014 -0.164 -0.021 -0.25 -0.021 c -0.167 0 -0.3 0.027 -0.4 0.08 c -0.1 0.054 -0.179 0.125 -0.235 0.215 s -0.093 0.195 -0.11 0.315 s -0.025 0.246 -0.025 0.38 v 0.87 h 1.11 v 1.02 h -1.11 v 3.78 h -1.2 v -3.78 Z" stroke-linecap="round" />
</g>
		<g transform="matrix(4.39 0 0 4.39 -142.98 168.13)" id="a"  >
<path style="stroke: none; stroke-width: 1; stroke-dasharray: none; stroke-linecap: butt; stroke-dashoffset: 0; stroke-linejoin: miter; stroke-miterlimit: 4; fill: rgb(227,6,19); fill-rule: nonzero; opacity: 1;"  transform=" translate(-34.3, -79.12)" d="M 35.32 78.044 c -0.234 -0.327 -0.547 -0.49 -0.94 -0.49 c -0.16 0 -0.316 0.04 -0.47 0.12 s -0.23 0.21 -0.23 0.39 c 0 0.146 0.063 0.254 0.19 0.32 c 0.126 0.066 0.287 0.123 0.48 0.17 s 0.401 0.095 0.625 0.145 c 0.223 0.051 0.432 0.127 0.625 0.23 s 0.353 0.245 0.48 0.425 c 0.126 0.18 0.19 0.427 0.19 0.74 c 0 0.287 -0.062 0.528 -0.185 0.725 c -0.124 0.197 -0.283 0.355 -0.48 0.476 s -0.418 0.206 -0.665 0.26 s -0.493 0.08 -0.74 0.08 c -0.374 0 -0.717 -0.054 -1.03 -0.16 s -0.593 -0.3 -0.84 -0.58 l 0.8 -0.75 c 0.153 0.174 0.318 0.315 0.495 0.425 c 0.177 0.11 0.392 0.165 0.645 0.165 c 0.086 0 0.177 -0.01 0.27 -0.029 c 0.093 -0.021 0.18 -0.054 0.26 -0.101 c 0.08 -0.047 0.145 -0.104 0.195 -0.175 s 0.075 -0.151 0.075 -0.245 c 0 -0.166 -0.063 -0.29 -0.19 -0.37 c -0.126 -0.08 -0.287 -0.145 -0.48 -0.194 c -0.193 -0.051 -0.401 -0.097 -0.625 -0.141 c -0.223 -0.043 -0.432 -0.113 -0.625 -0.21 s -0.353 -0.231 -0.48 -0.405 c -0.126 -0.173 -0.19 -0.413 -0.19 -0.72 c 0 -0.267 0.055 -0.498 0.165 -0.695 c 0.11 -0.196 0.255 -0.357 0.435 -0.484 s 0.387 -0.22 0.62 -0.28 c 0.233 -0.06 0.47 -0.09 0.71 -0.09 c 0.32 0 0.637 0.055 0.95 0.165 c 0.313 0.11 0.567 0.298 0.76 0.564 l -0.8 0.721 Z" stroke-linecap="round" />
</g>
		<g transform="matrix(4.39 0 0 4.39 -118.35 161.8)" id="a"  >
<path style="stroke: none; stroke-width: 1; stroke-dasharray: none; stroke-linecap: butt; stroke-dashoffset: 0; stroke-linejoin: miter; stroke-miterlimit: 4; fill: rgb(227,6,19); fill-rule: nonzero; opacity: 1;"  transform=" translate(-39.91, -77.67)" d="M 39.129 77.733 h -0.99 v -1.02 h 0.99 v -0.681 c 0 -0.333 0.023 -0.635 0.07 -0.904 c 0.046 -0.271 0.135 -0.502 0.265 -0.695 c 0.13 -0.193 0.312 -0.342 0.545 -0.445 c 0.233 -0.103 0.536 -0.154 0.91 -0.154 c 0.273 0 0.527 0.023 0.76 0.069 l -0.08 1.021 c -0.087 -0.021 -0.17 -0.037 -0.25 -0.05 c -0.08 -0.014 -0.164 -0.021 -0.25 -0.021 c -0.167 0 -0.3 0.027 -0.4 0.08 c -0.1 0.054 -0.179 0.125 -0.235 0.215 s -0.093 0.195 -0.11 0.315 s -0.025 0.246 -0.025 0.38 v 0.87 h 1.11 v 1.02 h -1.11 v 3.78 h -1.2 v -3.78 Z" stroke-linecap="round" />
</g>
		<g transform="matrix(4.39 0 0 4.39 -93.37 168.12)" id="a"  >
<path style="stroke: none; stroke-width: 1; stroke-dasharray: none; stroke-linecap: butt; stroke-dashoffset: 0; stroke-linejoin: miter; stroke-miterlimit: 4; fill: rgb(227,6,19); fill-rule: nonzero; opacity: 1;"  transform=" translate(-45.6, -79.11)" d="M 46.719 80.853 h -0.03 c -0.173 0.273 -0.394 0.472 -0.66 0.595 c -0.267 0.124 -0.56 0.186 -0.88 0.186 c -0.22 0 -0.435 -0.03 -0.645 -0.09 c -0.21 -0.061 -0.396 -0.15 -0.56 -0.271 c -0.163 -0.12 -0.295 -0.27 -0.395 -0.45 c -0.1 -0.18 -0.15 -0.39 -0.15 -0.63 c 0 -0.26 0.047 -0.481 0.14 -0.665 c 0.093 -0.183 0.218 -0.336 0.375 -0.46 c 0.157 -0.123 0.338 -0.222 0.545 -0.295 s 0.422 -0.128 0.645 -0.165 c 0.223 -0.036 0.448 -0.06 0.675 -0.069 c 0.227 -0.011 0.44 -0.016 0.64 -0.016 h 0.3 v -0.13 c 0 -0.3 -0.104 -0.524 -0.31 -0.675 c -0.207 -0.15 -0.47 -0.225 -0.79 -0.225 c -0.253 0 -0.49 0.045 -0.71 0.135 c -0.22 0.09 -0.41 0.212 -0.57 0.365 l -0.63 -0.631 c 0.267 -0.272 0.578 -0.47 0.935 -0.59 c 0.356 -0.12 0.725 -0.18 1.105 -0.18 c 0.34 0 0.626 0.038 0.86 0.115 c 0.233 0.076 0.427 0.175 0.58 0.295 s 0.271 0.258 0.355 0.415 c 0.083 0.156 0.144 0.314 0.18 0.475 s 0.058 0.315 0.065 0.465 c 0.006 0.15 0.01 0.282 0.01 0.396 v 2.76 h -1.08 v -0.66 Z m -0.07 -1.49 h -0.25 c -0.167 0 -0.354 0.007 -0.56 0.021 s -0.401 0.045 -0.585 0.095 c -0.183 0.05 -0.338 0.124 -0.465 0.22 c -0.127 0.097 -0.19 0.232 -0.19 0.405 c 0 0.113 0.025 0.209 0.075 0.285 c 0.05 0.077 0.115 0.142 0.195 0.195 c 0.08 0.053 0.17 0.092 0.27 0.114 c 0.1 0.023 0.2 0.035 0.3 0.035 c 0.414 0 0.718 -0.098 0.915 -0.295 c 0.197 -0.196 0.295 -0.465 0.295 -0.805 v -0.271 Z" stroke-linecap="round" />
</g>
		<g transform="matrix(4.39 0 0 4.39 -62.97 168.11)" id="a"  >
<path style="stroke: none; stroke-width: 1; stroke-dasharray: none; stroke-linecap: butt; stroke-dashoffset: 0; stroke-linejoin: miter; stroke-miterlimit: 4; fill: rgb(227,6,19); fill-rule: nonzero; opacity: 1;"  transform=" translate(-52.52, -79.11)" d="M 53.869 78.153 c -0.14 -0.146 -0.287 -0.263 -0.44 -0.35 s -0.31 -0.13 -0.47 -0.13 c -0.22 0 -0.417 0.04 -0.59 0.12 s -0.322 0.187 -0.445 0.319 c -0.124 0.134 -0.217 0.287 -0.28 0.46 c -0.063 0.174 -0.095 0.354 -0.095 0.54 c 0 0.188 0.031 0.367 0.095 0.54 c 0.063 0.174 0.157 0.327 0.28 0.46 c 0.123 0.134 0.271 0.24 0.445 0.32 s 0.37 0.12 0.59 0.12 c 0.187 0 0.36 -0.038 0.52 -0.115 c 0.16 -0.076 0.297 -0.188 0.41 -0.335 l 0.8 0.86 c -0.12 0.12 -0.258 0.224 -0.415 0.31 c -0.157 0.087 -0.315 0.157 -0.475 0.21 c -0.16 0.054 -0.313 0.092 -0.46 0.115 c -0.147 0.023 -0.273 0.035 -0.38 0.035 c -0.36 0 -0.7 -0.061 -1.02 -0.18 c -0.32 -0.12 -0.597 -0.29 -0.83 -0.511 c -0.233 -0.22 -0.418 -0.484 -0.555 -0.795 c -0.137 -0.31 -0.205 -0.654 -0.205 -1.035 s 0.068 -0.725 0.205 -1.034 c 0.137 -0.311 0.322 -0.575 0.555 -0.796 c 0.233 -0.22 0.51 -0.39 0.83 -0.51 c 0.32 -0.12 0.66 -0.18 1.02 -0.18 c 0.307 0 0.615 0.059 0.925 0.175 c 0.31 0.117 0.582 0.302 0.815 0.555 l -0.83 0.83 Z" stroke-linecap="round" />
</g>
		<g transform="matrix(4.39 0 0 4.39 -34.11 162.07)" id="a"  >
<path style="stroke: none; stroke-width: 1; stroke-dasharray: none; stroke-linecap: butt; stroke-dashoffset: 0; stroke-linejoin: miter; stroke-miterlimit: 4; fill: rgb(227,6,19); fill-rule: nonzero; opacity: 1;"  transform=" translate(-59.1, -77.73)" d="M 58.109 77.384 h 0.02 c 0.093 -0.2 0.258 -0.382 0.495 -0.545 c 0.236 -0.163 0.542 -0.245 0.915 -0.245 c 0.32 0 0.591 0.054 0.815 0.16 c 0.223 0.106 0.405 0.246 0.545 0.42 c 0.14 0.173 0.24 0.373 0.3 0.6 c 0.06 0.227 0.09 0.464 0.09 0.71 v 3.03 h -1.2 v -2.43 c 0 -0.134 -0.006 -0.282 -0.02 -0.445 c -0.013 -0.163 -0.048 -0.316 -0.105 -0.46 s -0.145 -0.264 -0.265 -0.36 c -0.12 -0.097 -0.284 -0.145 -0.49 -0.145 c -0.2 0 -0.369 0.033 -0.505 0.1 c -0.137 0.067 -0.25 0.157 -0.34 0.271 c -0.09 0.113 -0.155 0.243 -0.195 0.39 s -0.06 0.3 -0.06 0.46 v 2.62 h -1.2 v -7.56 h 1.2 v 3.43 Z" stroke-linecap="round" />
</g>
		<g transform="matrix(4.39 0 0 4.39 -5.18 168.13)" id="a"  >
<path style="stroke: none; stroke-width: 1; stroke-dasharray: none; stroke-linecap: butt; stroke-dashoffset: 0; stroke-linejoin: miter; stroke-miterlimit: 4; fill: rgb(227,6,19); fill-rule: nonzero; opacity: 1;"  transform=" translate(-65.69, -79.12)" d="M 66.709 78.044 c -0.234 -0.327 -0.547 -0.49 -0.94 -0.49 c -0.16 0 -0.316 0.04 -0.47 0.12 s -0.23 0.21 -0.23 0.39 c 0 0.146 0.063 0.254 0.19 0.32 c 0.126 0.066 0.287 0.123 0.48 0.17 s 0.401 0.095 0.625 0.145 c 0.223 0.051 0.432 0.127 0.625 0.23 s 0.353 0.245 0.48 0.425 c 0.126 0.18 0.19 0.427 0.19 0.74 c 0 0.287 -0.062 0.528 -0.185 0.725 c -0.124 0.197 -0.283 0.355 -0.48 0.476 s -0.418 0.206 -0.665 0.26 s -0.493 0.08 -0.74 0.08 c -0.374 0 -0.717 -0.054 -1.03 -0.16 s -0.593 -0.3 -0.84 -0.58 l 0.8 -0.75 c 0.153 0.174 0.318 0.315 0.495 0.425 c 0.177 0.11 0.392 0.165 0.645 0.165 c 0.086 0 0.177 -0.01 0.27 -0.029 c 0.093 -0.021 0.18 -0.054 0.26 -0.101 c 0.08 -0.047 0.145 -0.104 0.195 -0.175 s 0.075 -0.151 0.075 -0.245 c 0 -0.166 -0.063 -0.29 -0.19 -0.37 c -0.126 -0.08 -0.287 -0.145 -0.48 -0.194 c -0.193 -0.051 -0.401 -0.097 -0.625 -0.141 c -0.223 -0.043 -0.432 -0.113 -0.625 -0.21 s -0.353 -0.231 -0.48 -0.405 c -0.126 -0.173 -0.19 -0.413 -0.19 -0.72 c 0 -0.267 0.055 -0.498 0.165 -0.695 c 0.11 -0.196 0.255 -0.357 0.435 -0.484 s 0.387 -0.22 0.62 -0.28 c 0.233 -0.06 0.47 -0.09 0.71 -0.09 c 0.32 0 0.637 0.055 0.95 0.165 c 0.313 0.11 0.567 0.298 0.76 0.564 l -0.8 0.721 Z" stroke-linecap="round" />
</g>
		<g transform="matrix(4.39 0 0 4.39 22.63 168.11)" id="a"  >
<path style="stroke: none; stroke-width: 1; stroke-dasharray: none; stroke-linecap: butt; stroke-dashoffset: 0; stroke-linejoin: miter; stroke-miterlimit: 4; fill: rgb(227,6,19); fill-rule: nonzero; opacity: 1;"  transform=" translate(-72.02, -79.11)" d="M 73.369 78.153 c -0.14 -0.146 -0.287 -0.263 -0.44 -0.35 c -0.154 -0.087 -0.31 -0.13 -0.47 -0.13 c -0.22 0 -0.417 0.04 -0.59 0.12 c -0.174 0.08 -0.321 0.187 -0.445 0.319 c -0.123 0.134 -0.217 0.287 -0.279 0.46 c -0.063 0.174 -0.096 0.354 -0.096 0.54 c 0 0.188 0.032 0.367 0.096 0.54 c 0.062 0.174 0.156 0.327 0.279 0.46 c 0.124 0.134 0.271 0.24 0.445 0.32 c 0.173 0.08 0.37 0.12 0.59 0.12 c 0.187 0 0.36 -0.038 0.521 -0.115 c 0.16 -0.076 0.296 -0.188 0.41 -0.335 l 0.8 0.86 c -0.12 0.12 -0.259 0.224 -0.415 0.31 c -0.157 0.087 -0.315 0.157 -0.476 0.21 c -0.159 0.054 -0.313 0.092 -0.46 0.115 c -0.146 0.023 -0.273 0.035 -0.38 0.035 c -0.359 0 -0.7 -0.061 -1.02 -0.18 c -0.32 -0.12 -0.597 -0.29 -0.83 -0.511 c -0.233 -0.22 -0.418 -0.484 -0.555 -0.795 c -0.137 -0.31 -0.205 -0.654 -0.205 -1.035 s 0.068 -0.725 0.205 -1.034 c 0.137 -0.311 0.322 -0.575 0.555 -0.796 c 0.233 -0.22 0.51 -0.39 0.83 -0.51 c 0.319 -0.12 0.66 -0.18 1.02 -0.18 c 0.307 0 0.616 0.059 0.925 0.175 c 0.311 0.117 0.582 0.302 0.815 0.555 l -0.83 0.83 Z" stroke-linecap="round" />
</g>
		<g transform="matrix(4.39 0 0 4.39 51.5 162.07)" id="a"  >
<path style="stroke: none; stroke-width: 1; stroke-dasharray: none; stroke-linecap: butt; stroke-dashoffset: 0; stroke-linejoin: miter; stroke-miterlimit: 4; fill: rgb(227,6,19); fill-rule: nonzero; opacity: 1;"  transform=" translate(-78.6, -77.73)" d="M 77.609 77.384 h 0.021 c 0.093 -0.2 0.258 -0.382 0.494 -0.545 c 0.237 -0.163 0.542 -0.245 0.915 -0.245 c 0.32 0 0.592 0.054 0.815 0.16 s 0.405 0.246 0.545 0.42 c 0.14 0.173 0.24 0.373 0.3 0.6 c 0.061 0.227 0.09 0.464 0.09 0.71 v 3.03 h -1.199 v -2.43 c 0 -0.134 -0.007 -0.282 -0.021 -0.445 s -0.048 -0.316 -0.104 -0.46 s -0.146 -0.264 -0.266 -0.36 s -0.283 -0.145 -0.489 -0.145 c -0.2 0 -0.369 0.033 -0.506 0.1 c -0.137 0.067 -0.25 0.157 -0.34 0.271 s -0.154 0.243 -0.194 0.39 s -0.061 0.3 -0.061 0.46 v 2.62 h -1.2 v -7.56 h 1.2 v 3.43 Z" stroke-linecap="round" />
</g>
		<g transform="matrix(4.39 0 0 4.39 83.27 168.39)" id="a"  >
<path style="stroke: none; stroke-width: 1; stroke-dasharray: none; stroke-linecap: butt; stroke-dashoffset: 0; stroke-linejoin: miter; stroke-miterlimit: 4; fill: rgb(227,6,19); fill-rule: nonzero; opacity: 1;"  transform=" translate(-85.84, -79.17)" d="M 88.028 81.514 h -1.14 v -0.77 h -0.02 c -0.114 0.239 -0.287 0.448 -0.521 0.625 c -0.233 0.176 -0.55 0.265 -0.95 0.265 c -0.319 0 -0.592 -0.052 -0.814 -0.155 c -0.224 -0.104 -0.405 -0.243 -0.545 -0.42 c -0.141 -0.177 -0.24 -0.378 -0.301 -0.604 c -0.06 -0.227 -0.09 -0.464 -0.09 -0.71 v -3.03 h 1.2 v 2.43 c 0 0.134 0.007 0.282 0.021 0.445 c 0.013 0.163 0.048 0.316 0.104 0.46 s 0.144 0.264 0.26 0.359 c 0.117 0.098 0.282 0.146 0.495 0.146 c 0.2 0 0.368 -0.033 0.505 -0.1 c 0.137 -0.067 0.25 -0.157 0.341 -0.271 c 0.09 -0.113 0.154 -0.243 0.194 -0.39 s 0.061 -0.3 0.061 -0.46 v -2.62 h 1.199 v 4.8 Z" stroke-linecap="round" />
</g>
		<g transform="matrix(4.39 0 0 4.39 108.17 162.06)" id="a"  >
<path style="stroke: none; stroke-width: 1; stroke-dasharray: none; stroke-linecap: butt; stroke-dashoffset: 0; stroke-linejoin: miter; stroke-miterlimit: 4; fill: rgb(227,6,19); fill-rule: nonzero; opacity: 1;"  transform=" translate(-91.51, -77.73)" d="M 90.909 73.954 h 1.2 v 7.56 h -1.2 v -7.56 Z" stroke-linecap="round" />
</g>
		<g transform="matrix(4.39 0 0 4.39 133.06 168.12)" id="a"  >
<path style="stroke: none; stroke-width: 1; stroke-dasharray: none; stroke-linecap: butt; stroke-dashoffset: 0; stroke-linejoin: miter; stroke-miterlimit: 4; fill: rgb(227,6,19); fill-rule: nonzero; opacity: 1;"  transform=" translate(-97.18, -79.11)" d="M 95.948 79.533 c 0.04 0.36 0.181 0.641 0.42 0.841 c 0.24 0.199 0.53 0.3 0.87 0.3 c 0.301 0 0.552 -0.062 0.755 -0.186 c 0.204 -0.123 0.382 -0.278 0.535 -0.465 l 0.86 0.65 c -0.28 0.347 -0.594 0.594 -0.94 0.74 s -0.71 0.22 -1.09 0.22 c -0.359 0 -0.7 -0.061 -1.02 -0.18 c -0.32 -0.12 -0.597 -0.29 -0.83 -0.511 c -0.233 -0.22 -0.419 -0.484 -0.556 -0.795 c -0.137 -0.31 -0.204 -0.654 -0.204 -1.035 s 0.067 -0.725 0.204 -1.034 c 0.137 -0.311 0.322 -0.575 0.556 -0.796 c 0.233 -0.22 0.51 -0.39 0.83 -0.51 c 0.319 -0.12 0.66 -0.18 1.02 -0.18 c 0.333 0 0.639 0.059 0.915 0.175 c 0.276 0.117 0.514 0.285 0.71 0.505 c 0.196 0.221 0.351 0.492 0.46 0.815 c 0.11 0.323 0.165 0.694 0.165 1.115 v 0.329 h -3.66 Z m 2.46 -0.899 c -0.006 -0.354 -0.116 -0.632 -0.33 -0.835 c -0.213 -0.203 -0.51 -0.305 -0.89 -0.305 c -0.36 0 -0.645 0.103 -0.854 0.31 s -0.339 0.483 -0.386 0.83 h 2.46 Z" stroke-linecap="round" />
</g>
</g>
</g>
</svg>